<svg width="512" height="512" viewBox="0 0 512 512" fill="none" xmlns="http://www.w3.org/2000/svg">
  <defs>
    <linearGradient id="bg" x1="88" y1="452" x2="430" y2="58" gradientUnits="userSpaceOnUse">
      <stop offset="0" stop-color="#07073B"/>
      <stop offset="0.52" stop-color="#1A1E7B"/>
      <stop offset="1" stop-color="#006438"/>
    </linearGradient>
    <radialGradient id="nebulaA" cx="0" cy="0" r="1" gradientUnits="userSpaceOnUse" gradientTransform="translate(168 356) rotate(21.4) scale(212 166)">
      <stop stop-color="#2D38D6" stop-opacity="0.34"/>
      <stop offset="1" stop-color="#2D38D6" stop-opacity="0"/>
    </radialGradient>
    <radialGradient id="nebulaB" cx="0" cy="0" r="1" gradientUnits="userSpaceOnUse" gradientTransform="translate(356 116) rotate(136.5) scale(198 154)">
      <stop stop-color="#10C7BF" stop-opacity="0.28"/>
      <stop offset="1" stop-color="#10C7BF" stop-opacity="0"/>
    </radialGradient>
    <linearGradient id="constellationStroke" x1="70" y1="400" x2="436" y2="110" gradientUnits="userSpaceOnUse">
      <stop offset="0" stop-color="#5FA7FF"/>
      <stop offset="0.56" stop-color="#72C5FF"/>
      <stop offset="1" stop-color="#9CF8DB"/>
    </linearGradient>
    <linearGradient id="virgoMark" x1="84" y1="124" x2="248" y2="124" gradientUnits="userSpaceOnUse">
      <stop offset="0" stop-color="#059AD6"/>
      <stop offset="1" stop-color="#10C9B0"/>
    </linearGradient>
    <radialGradient id="starGlow" cx="0" cy="0" r="1" gradientUnits="userSpaceOnUse" gradientTransform="translate(0 0) scale(1)">
      <stop stop-color="white"/>
      <stop offset="0.45" stop-color="#DFF2FF" stop-opacity="0.92"/>
      <stop offset="1" stop-color="#DFF2FF" stop-opacity="0"/>
    </radialGradient>
    <filter id="softGlow" x="-60%" y="-60%" width="220%" height="220%" color-interpolation-filters="sRGB">
      <feGaussianBlur stdDeviation="4.5" result="blur"/>
      <feMerge>
        <feMergeNode in="blur"/>
        <feMergeNode in="SourceGraphic"/>
      </feMerge>
    </filter>
    <filter id="markGlow" x="-35%" y="-35%" width="170%" height="170%" color-interpolation-filters="sRGB">
      <feGaussianBlur stdDeviation="3.2" result="blur"/>
      <feMerge>
        <feMergeNode in="blur"/>
        <feMergeNode in="SourceGraphic"/>
      </feMerge>
    </filter>
    <clipPath id="circleClip">
      <circle cx="256" cy="256" r="248"/>
    </clipPath>
  </defs>

  <g clip-path="url(#circleClip)">
    <circle cx="256" cy="256" r="248" fill="url(#bg)"/>
    <circle cx="256" cy="256" r="248" fill="url(#nebulaA)"/>
    <circle cx="256" cy="256" r="248" fill="url(#nebulaB)"/>

    <g opacity="0.8">
      <circle cx="84" cy="112" r="1.5" fill="#D9E6FF"/>
      <circle cx="120" cy="72" r="1.2" fill="#E9F3FF"/>
      <circle cx="160" cy="54" r="1.4" fill="#D7F0FF"/>
      <circle cx="190" cy="82" r="1.3" fill="#E5EFFF"/>
      <circle cx="230" cy="44" r="1.4" fill="#DAEEFF"/>
      <circle cx="266" cy="36" r="1.6" fill="#E7FBFF"/>
      <circle cx="302" cy="56" r="1.2" fill="#E6F1FF"/>
      <circle cx="332" cy="92" r="1.1" fill="#EAFBFF"/>
      <circle cx="388" cy="80" r="1.5" fill="#E6FBFF"/>
      <circle cx="418" cy="122" r="1.2" fill="#F1FDFF"/>
      <circle cx="432" cy="70" r="1.8" fill="#FBFFFF"/>
      <circle cx="442" cy="166" r="1.4" fill="#E3F2FF"/>
      <circle cx="404" cy="196" r="1.1" fill="#DCE8FF"/>
      <circle cx="454" cy="218" r="1.6" fill="#E8F8FF"/>
      <circle cx="406" cy="246" r="1.2" fill="#F0FDFF"/>
      <circle cx="452" cy="276" r="1.3" fill="#D9E7FF"/>
      <circle cx="420" cy="330" r="1.2" fill="#E3F7FF"/>
      <circle cx="452" cy="368" r="1.7" fill="#F7FFFF"/>
      <circle cx="386" cy="400" r="1.1" fill="#DFEEFF"/>
      <circle cx="346" cy="438" r="1.4" fill="#E2F2FF"/>
      <circle cx="286" cy="458" r="1.8" fill="#EEF7FF"/>
      <circle cx="228" cy="440" r="1.3" fill="#DBE8FF"/>
      <circle cx="170" cy="454" r="1.1" fill="#E6F9FF"/>
      <circle cx="126" cy="426" r="1.5" fill="#E8F1FF"/>
      <circle cx="84" cy="392" r="1.3" fill="#F0FBFF"/>
      <circle cx="58" cy="332" r="1.4" fill="#D6E4FF"/>
      <circle cx="44" cy="286" r="1.6" fill="#EEF7FF"/>
      <circle cx="52" cy="238" r="1.2" fill="#E0EBFF"/>
      <circle cx="72" cy="194" r="1.4" fill="#DDF3FF"/>
      <circle cx="94" cy="152" r="1.1" fill="#E6F4FF"/>
      <circle cx="200" cy="134" r="1.2" fill="#E4F4FF"/>
      <circle cx="256" cy="120" r="1.5" fill="#F3FFFF"/>
      <circle cx="284" cy="148" r="1.2" fill="#E1F0FF"/>
      <circle cx="308" cy="180" r="1.6" fill="#DDF6FF"/>
      <circle cx="148" cy="166" r="1.2" fill="#EBF8FF"/>
      <circle cx="116" cy="226" r="1.3" fill="#E4F1FF"/>
      <circle cx="176" cy="214" r="1.1" fill="#EDF6FF"/>
      <circle cx="154" cy="262" r="1.3" fill="#E7F2FF"/>
      <circle cx="100" cy="306" r="1.2" fill="#DEEEFF"/>
      <circle cx="210" cy="286" r="1.2" fill="#E6F3FF"/>
      <circle cx="236" cy="324" r="1.1" fill="#E0ECFF"/>
      <circle cx="188" cy="360" r="1.3" fill="#EDF8FF"/>
      <circle cx="244" cy="382" r="1.2" fill="#E4F0FF"/>
      <circle cx="304" cy="332" r="1.2" fill="#DEF1FF"/>
      <circle cx="330" cy="278" r="1.5" fill="#EDFDFF"/>
      <circle cx="348" cy="228" r="1.2" fill="#E7F6FF"/>
    </g>

    <g opacity="0.2">
      <circle cx="96" cy="96" r="3" fill="white"/>
      <circle cx="400" cy="116" r="2.7" fill="white"/>
      <circle cx="438" cy="344" r="3.2" fill="white"/>
      <circle cx="116" cy="394" r="2.8" fill="white"/>
      <circle cx="332" cy="420" r="2.6" fill="white"/>
    </g>

    <g filter="url(#markGlow)" opacity="0.98">
      <g fill="none" stroke="url(#virgoMark)" stroke-width="10" stroke-linecap="round" stroke-linejoin="round">
        <path d="M94 154V92"/>
        <path d="M120 146V84"/>
        <path d="M148 140C148 109 163 84 185 84"/>
        <path d="M172 146C172 113 189 84 216 84C243 84 258 102 258 124C258 151 239 170 214 170C189 170 172 152 172 127"/>
        <path d="M188 146C188 113 206 84 235 84C262 84 279 102 279 128C279 157 258 177 229 177C214 177 202 171 194 160"/>
        <path d="M286 146C286 113 304 84 334 84"/>
        <path d="M314 154C314 120 332 92 359 92"/>
      </g>
    </g>

    <g stroke="url(#constellationStroke)" stroke-width="3.5" stroke-linecap="round" stroke-linejoin="round" opacity="0.92">
      <path d="M48 390L136 342L193 292L256 252L306 206"/>
      <path d="M193 292L138 368L84 406"/>
      <path d="M256 252L219 304L218 370"/>
      <path d="M256 252L348 208L406 154"/>
      <path d="M348 208L349 120L408 118L416 154"/>
      <path d="M408 118L438 88"/>
    </g>

    <g filter="url(#softGlow)">
      <g><circle cx="48" cy="390" r="17" fill="url(#starGlow)"/><circle cx="48" cy="390" r="5.2" fill="white"/></g>
      <g><circle cx="84" cy="406" r="14" fill="url(#starGlow)"/><circle cx="84" cy="406" r="4.5" fill="white"/></g>
      <g><circle cx="136" cy="342" r="16" fill="url(#starGlow)"/><circle cx="136" cy="342" r="5" fill="white"/></g>
      <g><circle cx="138" cy="368" r="15" fill="url(#starGlow)"/><circle cx="138" cy="368" r="4.8" fill="white"/></g>
      <g><circle cx="193" cy="292" r="16" fill="url(#starGlow)"/><circle cx="193" cy="292" r="5.2" fill="white"/></g>
      <g><circle cx="219" cy="304" r="13" fill="url(#starGlow)"/><circle cx="219" cy="304" r="4.2" fill="white"/></g>
      <g><circle cx="218" cy="370" r="15" fill="url(#starGlow)"/><circle cx="218" cy="370" r="4.9" fill="white"/></g>
      <g><circle cx="256" cy="252" r="22" fill="url(#starGlow)"/><circle cx="256" cy="252" r="6.4" fill="white"/></g>
      <g><circle cx="306" cy="206" r="18" fill="url(#starGlow)"/><circle cx="306" cy="206" r="5.4" fill="white"/></g>
      <g><circle cx="348" cy="208" r="18" fill="url(#starGlow)"/><circle cx="348" cy="208" r="5.7" fill="white"/></g>
      <g><circle cx="349" cy="120" r="18" fill="url(#starGlow)"/><circle cx="349" cy="120" r="5.4" fill="white"/></g>
      <g><circle cx="408" cy="118" r="17" fill="url(#starGlow)"/><circle cx="408" cy="118" r="5.2" fill="white"/></g>
      <g><circle cx="416" cy="154" r="16" fill="url(#starGlow)"/><circle cx="416" cy="154" r="5" fill="white"/></g>
      <g><circle cx="438" cy="88" r="18" fill="url(#starGlow)"/><circle cx="438" cy="88" r="5.6" fill="white"/></g>
    </g>

    <circle cx="256" cy="256" r="248" stroke="rgba(255,255,255,0.18)" stroke-width="8"/>
  </g>
</svg>
